<svg width="765" height="95" viewBox="0 0 765 95" fill="none" xmlns="http://www.w3.org/2000/svg">
    <path d="M10.2852 65.7539C13.6055 67.6289 16.9648 69.3281 20.3633 70.8516C23.8008 72.3359 27.3555 73.6055 31.0273 74.6602C34.6992 75.6758 38.5469 76.457 42.5703 77.0039C46.6328 77.5508 50.9492 77.8242 55.5195 77.8242C61.0273 77.8242 65.7148 77.4727 69.582 76.7695C73.4492 76.0273 76.5938 75.0312 79.0156 73.7812C81.4766 72.4922 83.2539 70.9688 84.3477 69.2109C85.4805 67.4531 86.0469 65.5391 86.0469 63.4688C86.0469 60.1484 84.6602 57.5312 81.8867 55.6172C79.1133 53.6641 74.8359 52.6875 69.0547 52.6875C66.5156 52.6875 63.8398 52.8633 61.0273 53.2148C58.2148 53.5273 55.3633 53.8789 52.4727 54.2695C49.6211 54.6602 46.7891 55.0312 43.9766 55.3828C41.2031 55.6953 38.5859 55.8516 36.125 55.8516C32.0234 55.8516 28.0781 55.3242 24.2891 54.2695C20.5391 53.2148 17.1992 51.6328 14.2695 49.5234C11.3789 47.4141 9.07422 44.7773 7.35547 41.6133C5.63672 38.4492 4.77734 34.7578 4.77734 30.5391C4.77734 28.0391 5.10938 25.5586 5.77344 23.0977C6.47656 20.6367 7.57031 18.293 9.05469 16.0664C10.5781 13.8008 12.5312 11.7109 14.9141 9.79688C17.2969 7.84375 20.168 6.16406 23.5273 4.75781C26.9258 3.35156 30.832 2.25781 35.2461 1.47656C39.6992 0.65625 44.7578 0.246094 50.4219 0.246094C54.5234 0.246094 58.6445 0.480469 62.7852 0.949219C66.9258 1.37891 70.9492 2.00391 74.8555 2.82422C78.8008 3.64453 82.5898 4.64062 86.2227 5.8125C89.8555 6.94531 93.2344 8.21484 96.3594 9.62109L88.2148 24.6211C85.6367 23.4883 82.8633 22.4531 79.8945 21.5156C76.9258 20.5391 73.8203 19.6992 70.5781 18.9961C67.3359 18.293 63.9766 17.7461 60.5 17.3555C57.0625 16.9258 53.5469 16.7109 49.9531 16.7109C44.8359 16.7109 40.6172 17.082 37.2969 17.8242C34.0156 18.5664 31.3984 19.5234 29.4453 20.6953C27.4922 21.8281 26.125 23.1172 25.3438 24.5625C24.6016 25.9688 24.2305 27.375 24.2305 28.7812C24.2305 31.5156 25.4609 33.7617 27.9219 35.5195C30.3828 37.2383 34.1328 38.0977 39.1719 38.0977C41.2031 38.0977 43.5273 37.9609 46.1445 37.6875C48.8008 37.375 51.5742 37.043 54.4648 36.6914C57.3945 36.3398 60.3633 36.0273 63.3711 35.7539C66.418 35.4414 69.3672 35.2852 72.2188 35.2852C77.6094 35.2852 82.375 35.8906 86.5156 37.1016C90.6953 38.3125 94.1914 40.0508 97.0039 42.3164C99.8164 44.543 101.945 47.2578 103.391 50.4609C104.836 53.625 105.559 57.1797 105.559 61.125C105.559 66.3984 104.328 71.1055 101.867 75.2461C99.4453 79.3477 95.9688 82.8242 91.4375 85.6758C86.9453 88.4883 81.5156 90.6367 75.1484 92.1211C68.7812 93.5664 61.6914 94.2891 53.8789 94.2891C48.7227 94.2891 43.6836 93.957 38.7617 93.293C33.8398 92.668 29.1133 91.7695 24.582 90.5977C20.0898 89.3867 15.793 87.9609 11.6914 86.3203C7.62891 84.6406 3.85938 82.8047 0.382812 80.8125L10.2852 65.7539ZM122.551 1.41797H141.125V51.8672C141.125 56.0078 141.691 59.6992 142.824 62.9414C143.957 66.1445 145.637 68.8594 147.863 71.0859C150.129 73.3125 152.922 75.0117 156.242 76.1836C159.562 77.3164 163.43 77.8828 167.844 77.8828C172.219 77.8828 176.066 77.3164 179.387 76.1836C182.746 75.0117 185.539 73.3125 187.766 71.0859C190.031 68.8594 191.73 66.1445 192.863 62.9414C193.996 59.6992 194.562 56.0078 194.562 51.8672V1.41797H213.137V54.0938C213.137 60.1094 212.121 65.5781 210.09 70.5C208.059 75.4219 205.109 79.6406 201.242 83.1562C197.375 86.6719 192.629 89.3867 187.004 91.3008C181.418 93.2148 175.031 94.1719 167.844 94.1719C160.656 94.1719 154.25 93.2148 148.625 91.3008C143.039 89.3867 138.312 86.6719 134.445 83.1562C130.578 79.6406 127.629 75.4219 125.598 70.5C123.566 65.5781 122.551 60.1094 122.551 54.0938V1.41797ZM235.812 1.41797H284.094C291.125 1.41797 297.219 2.17969 302.375 3.70312C307.531 5.22656 311.809 7.43359 315.207 10.3242C318.605 13.1758 321.125 16.6719 322.766 20.8125C324.445 24.9531 325.285 29.6211 325.285 34.8164C325.285 39.6992 324.465 44.2109 322.824 48.3516C321.184 52.4922 318.664 56.0859 315.266 59.1328C311.906 62.1406 307.648 64.5039 302.492 66.2227C297.336 67.9023 291.242 68.7422 284.211 68.7422L254.387 68.6836V93H235.812V1.41797ZM284.562 52.6289C288.078 52.6289 291.145 52.2188 293.762 51.3984C296.418 50.5391 298.625 49.3477 300.383 47.8242C302.18 46.2617 303.508 44.3867 304.367 42.1992C305.266 39.9727 305.715 37.5117 305.715 34.8164C305.715 29.3867 303.938 25.168 300.383 22.1602C296.867 19.1133 291.594 17.5898 284.562 17.5898H254.387V52.6289H284.562ZM345.617 1.41797H392.199C399.23 1.41797 405.324 2.16016 410.48 3.64453C415.637 5.08984 419.914 7.19922 423.312 9.97266C426.711 12.7461 429.23 16.125 430.871 20.1094C432.551 24.0938 433.391 28.6055 433.391 33.6445C433.391 37.043 432.98 40.2852 432.16 43.3711C431.34 46.418 430.07 49.2305 428.352 51.8086C426.672 54.3867 424.543 56.6914 421.965 58.7227C419.387 60.7148 416.359 62.375 412.883 63.7031L432.805 93H410.07L392.844 66.9844H392.316L364.191 66.9258V93H345.617V1.41797ZM392.668 50.8711C396.184 50.8711 399.25 50.4609 401.867 49.6406C404.523 48.8203 406.73 47.668 408.488 46.1836C410.285 44.6992 411.613 42.9023 412.473 40.793C413.371 38.6445 413.82 36.2617 413.82 33.6445C413.82 28.5273 412.062 24.582 408.547 21.8086C405.031 18.9961 399.738 17.5898 392.668 17.5898H364.191V50.8711H392.668ZM455.422 1.41797H533.41V17.707H473.996V35.9883H526.613V51.2812H473.996V76.7695H534.641V93H455.422V1.41797ZM555.324 1.41797H573.898L607.18 34.8164L640.461 1.41797H659.035V93H640.461V27.1406L607.18 59.1914L573.898 27.1406V93H555.324V1.41797ZM685.109 1.41797H763.098V17.707H703.684V35.9883H756.301V51.2812H703.684V76.7695H764.328V93H685.109V1.41797Z"
          fill="white"/>
</svg>
